HIERARCHY
ROOT Hips
{
	OFFSET 0.000000 0.000000 0.000000
	CHANNELS 6 Xposition Yposition Zposition Xrotation Yrotation Zrotation
	JOINT LeftUpLeg_virtual
	{
		OFFSET 0.000000 0.000000 0.000000
		CHANNELS 3 Xrotation Yrotation Zrotation
		JOINT LeftUpLeg
		{
			OFFSET 15.427100 -6.655098 0.678600
			CHANNELS 3 Xrotation Yrotation Zrotation
			JOINT LeftLeg
			{
				OFFSET 4.081073 -39.591068 13.024000
				CHANNELS 3 Xrotation Yrotation Zrotation
				JOINT LeftFoot
				{
					OFFSET -4.081074 -37.707932 -15.979700
					CHANNELS 3 Xrotation Yrotation Zrotation
					JOINT LeftToeBase
					{
						OFFSET 5.346399 -15.068900 20.645000
						CHANNELS 3 Xrotation Yrotation Zrotation
						JOINT LeftToe_End
						{
							OFFSET 2.754700 0.931300 11.300900
							CHANNELS 3 Xrotation Yrotation Zrotation
							End Site
							{
								OFFSET 0 0 0
							}
						}
					}
				}
			}
		}
	}
	JOINT RightUpLeg_virtual
	{
		OFFSET 0.000000 0.000000 0.000000
		CHANNELS 3 Xrotation Yrotation Zrotation
		JOINT RightUpLeg
		{
			OFFSET -15.569500 -6.655098 0.678600
			CHANNELS 3 Xrotation Yrotation Zrotation
			JOINT RightLeg
			{
				OFFSET -4.081825 -39.591045 13.023800
				CHANNELS 3 Xrotation Yrotation Zrotation
				JOINT RightFoot
				{
					OFFSET 4.081824 -37.707954 -15.979600
					CHANNELS 3 Xrotation Yrotation Zrotation
					JOINT RightToeBase
					{
						OFFSET -5.346400 -15.068900 20.645000
						CHANNELS 3 Xrotation Yrotation Zrotation
						JOINT RightToe_End
						{
							OFFSET -2.754700 0.931300 11.300900
							CHANNELS 3 Xrotation Yrotation Zrotation
							End Site
							{
								OFFSET 0 0 0
							}
						}
					}
				}
			}
		}
	}
	JOINT Spine_virtual
	{
		OFFSET 0.000000 0.000000 0.000000
		CHANNELS 3 Xrotation Yrotation Zrotation
		JOINT Spine
		{
			OFFSET -0.279200 12.230698 -2.892100
			CHANNELS 3 Xrotation Yrotation Zrotation
			JOINT Spine1
			{
				OFFSET -0.232667 10.192268 -1.242267
				CHANNELS 3 Xrotation Yrotation Zrotation
				JOINT Spine1_split
				{
					OFFSET -0.232667 10.192268 -1.242267
					CHANNELS 3 Xrotation Yrotation Zrotation
					JOINT Spine2
					{
						OFFSET -0.232667 10.192268 -1.242267
						CHANNELS 3 Xrotation Yrotation Zrotation
						JOINT Neck_virtual
						{
							OFFSET 0.000000 0.000000 0.000000
							CHANNELS 3 Xrotation Yrotation Zrotation
							JOINT Neck
							{
								OFFSET -0.418800 17.814194 8.416900
								CHANNELS 3 Xrotation Yrotation Zrotation
								JOINT Head
								{
									OFFSET 0.000000 7.031097 3.806800
									CHANNELS 3 Xrotation Yrotation Zrotation
									JOINT HeadTop_End
									{
										OFFSET 0.000000 24.646606 12.978600
										CHANNELS 3 Xrotation Yrotation Zrotation
										End Site
										{
											OFFSET 0 0 0
										}
									}
								}
							}
						}
						JOINT LeftShoulder_virtual
						{
							OFFSET 0.000000 0.000000 0.000000
							CHANNELS 3 Xrotation Yrotation Zrotation
							JOINT LeftShoulder
							{
								OFFSET 8.476499 7.247704 -3.868750
								CHANNELS 3 Xrotation Yrotation Zrotation
								JOINT LeftShoulder_split
								{
									OFFSET 8.476499 7.247704 -3.868750
									CHANNELS 3 Xrotation Yrotation Zrotation
									JOINT LeftArm
									{
										OFFSET 9.308998 -2.777710 0.208600
										CHANNELS 3 Xrotation Yrotation Zrotation
										JOINT LeftForeArm
										{
											OFFSET 29.972298 0.000000 0.000000
											CHANNELS 3 Xrotation Yrotation Zrotation
											JOINT LeftHand
											{
												OFFSET 26.026505 0.000000 0.000000
												CHANNELS 3 Xrotation Yrotation Zrotation
												End Site
												{
													OFFSET 0 0 0
												}
											}
										}
									}
								}
							}
						}
						JOINT RightShoulder_virtual
						{
							OFFSET 0.000000 0.000000 0.000000
							CHANNELS 3 Xrotation Yrotation Zrotation
							JOINT RightShoulder
							{
								OFFSET -7.570500 7.247704 -3.868750
								CHANNELS 3 Xrotation Yrotation Zrotation
								JOINT RightShoulder_split
								{
									OFFSET -7.570500 7.247704 -3.868750
									CHANNELS 3 Xrotation Yrotation Zrotation
									JOINT RightArm
									{
										OFFSET -9.308998 -2.777710 0.208500
										CHANNELS 3 Xrotation Yrotation Zrotation
										JOINT RightForeArm
										{
											OFFSET -29.972300 0.000000 0.000000
											CHANNELS 3 Xrotation Yrotation Zrotation
											JOINT RightHand
											{
												OFFSET -26.026505 0.000000 0.000000
												CHANNELS 3 Xrotation Yrotation Zrotation
												End Site
												{
													OFFSET 0 0 0
												}
											}
										}
									}
								}
							}
						}
					}
				}
			}
		}
	}
}
MOTION
Frames: 6
Frame Time: 0.03333333
5.231951 92.100403 -1.421467 0.000000 0.000000 0.000000 -2.520526 2.503285 -4.440048 -16.882745 8.962248 19.228058 25.795377 10.020473 1.019309 -7.893734 4.469425 -11.699229 2.775668 -0.092705 -1.832834 0.000000 0.000000 0.000000 -1.934977 3.021922 -5.006480 1.459763 -2.158378 9.631126 -1.236253 -5.960058 2.025563 0.128212 0.521177 -9.091379 -2.268632 0.306839 0.132145 0.000000 0.000000 0.000000 -2.879817 0.481706 -4.816381 1.992247 -0.969706 3.368803 1.341416 0.009178 5.760156 0.752967 1.695255 -0.299142 0.000000 0.000000 0.000000 -0.215603 0.430566 5.585618 0.098919 0.847968 -2.458575 2.099684 2.753976 -8.101986 0.000000 0.000000 0.000000 0.089576 0.526736 5.507354 4.358382 -10.958798 -4.621243 -1.062652 0.806376 -0.692738 4.458881 3.816645 -85.482235 -1.941149 -13.080486 0.640769 0.000000 0.000000 0.000000 0.611893 0.714827 5.535749 5.210940 2.815259 8.078443 -1.719124 2.655163 -1.840214 0.859656 4.543943 66.483019 1.384580 20.003795 1.686728 0.000000 0.000000 0.000000 
5.079995 92.035889 -1.464325 0.000000 0.000000 0.000000 -2.503527 2.675317 -4.471495 -16.944159 8.867452 19.328008 25.848774 9.981162 1.063650 -7.822969 4.448319 -11.863081 2.704292 -0.080210 -1.894518 0.000000 0.000000 0.000000 -1.916097 3.235550 -5.025430 1.420208 -2.080840 9.752505 -1.370166 -6.038627 1.998633 0.181786 0.487182 -9.043532 -2.291000 0.338670 0.141646 0.000000 0.000000 0.000000 -2.816671 0.728933 -4.883478 1.961639 -1.026305 3.386596 1.393319 0.011435 5.732680 0.777901 1.633080 -0.333653 0.000000 0.000000 0.000000 -0.208395 0.420725 5.559289 -0.066536 0.830058 -2.214610 1.785920 2.619607 -8.038553 0.000000 0.000000 0.000000 0.105108 0.506957 5.499364 4.352900 -10.934346 -4.685091 -1.019634 0.703528 -0.387762 4.366598 3.872648 -85.197369 -2.046988 -13.143245 0.496605 0.000000 0.000000 0.000000 0.586711 0.695625 5.513345 5.142227 2.966757 8.102628 -1.560199 2.778544 -1.888081 0.938905 4.539804 66.731344 1.280654 20.175233 1.725481 0.000000 0.000000 0.000000 
4.848797 91.945717 -1.543861 0.000000 0.000000 0.000000 -2.427579 2.893843 -4.634201 -17.268776 8.696439 19.716045 26.189247 9.895500 1.097713 -7.736307 4.385549 -12.049769 2.641180 -0.070207 -1.919167 0.000000 0.000000 0.000000 -1.824893 3.506552 -5.159483 1.452591 -1.865495 10.031295 -1.722591 -6.050531 1.982244 0.443787 0.516523 -8.855104 -2.148935 0.370997 0.155177 0.000000 0.000000 0.000000 -2.700879 1.001751 -5.046177 1.924064 -1.122542 3.430829 1.505177 -0.000022 5.690853 0.818766 1.563171 -0.358392 0.000000 0.000000 0.000000 -0.138304 0.396017 5.520552 -0.424255 0.810287 -1.918085 0.903325 2.361241 -7.697638 0.000000 0.000000 0.000000 0.151067 0.474959 5.473090 4.343932 -10.942944 -4.713518 -0.999005 0.595017 -0.170752 4.056276 3.727326 -84.556000 -2.128756 -13.150997 0.355433 0.000000 0.000000 0.000000 0.597391 0.652583 5.478812 5.013081 3.084962 8.297892 -1.483301 2.839976 -1.958959 1.148638 5.110399 66.862334 1.236584 20.061285 1.736148 0.000000 0.000000 0.000000 
4.582150 91.844170 -1.618641 0.000000 0.000000 0.000000 -2.303275 3.124031 -4.900815 -17.781721 8.453211 20.301141 26.697044 9.783851 1.141903 -7.716466 4.309246 -12.249813 2.606516 -0.064677 -1.913243 0.000000 0.000000 0.000000 -1.661662 3.799376 -5.398604 1.553883 -1.513743 10.431971 -2.204416 -6.029746 1.976215 0.865174 0.549922 -8.628347 -1.980072 0.400585 0.181418 0.000000 0.000000 0.000000 -2.531181 1.275819 -5.271569 1.862610 -1.239359 3.485843 1.675377 -0.014934 5.634395 0.835616 1.534359 -0.384961 0.000000 0.000000 0.000000 -0.005545 0.358505 5.462882 -0.921405 0.783993 -1.596734 -0.462740 2.021306 -7.137029 0.000000 0.000000 0.000000 0.231848 0.436334 5.424514 4.329598 -10.969652 -4.721400 -1.020685 0.401853 -0.068847 3.558966 3.352745 -83.658711 -2.158712 -13.125584 0.227864 0.000000 0.000000 0.000000 0.649735 0.597512 5.429990 4.822658 3.167152 8.666123 -1.457127 2.910103 -2.046272 1.470410 6.174848 66.827390 1.261014 19.643016 1.724781 0.000000 0.000000 0.000000 
4.303038 91.742188 -1.671719 0.000000 0.000000 0.000000 -2.117652 3.378962 -5.231575 -18.407491 8.143871 20.984392 27.260677 9.645031 1.209823 -7.818235 4.226303 -12.506041 2.549689 -0.067783 -1.862578 0.000000 0.000000 0.000000 -1.446994 4.078437 -5.706014 1.709356 -1.059458 10.894810 -2.766592 -6.009266 1.974316 1.367770 0.535355 -8.450654 -1.885525 0.424889 0.231214 0.000000 0.000000 0.000000 -2.327898 1.539622 -5.520519 1.763293 -1.366480 3.532333 1.891598 -0.025630 5.557314 0.850158 1.518210 -0.394928 0.000000 0.000000 0.000000 0.173179 0.315324 5.375896 -1.466383 0.755886 -1.281126 -2.168166 1.651003 -6.443295 0.000000 0.000000 0.000000 0.348565 0.398464 5.348287 4.303817 -10.987488 -4.739507 -1.074037 0.076990 -0.052844 2.944757 2.752094 -82.596952 -2.103092 -13.123835 0.132000 0.000000 0.000000 0.000000 0.747375 0.538503 5.361172 4.582775 3.204013 9.171381 -1.482863 2.927620 -2.110862 1.914446 7.638350 66.577993 1.354760 18.916226 1.690737 0.000000 0.000000 0.000000 
4.024517 91.663422 -1.687611 0.000000 0.000000 0.000000 -1.862201 3.673393 -5.579032 -19.080383 7.789811 21.667998 27.854025 9.483399 1.300508 -8.037703 4.150713 -12.842571 2.444141 -0.082333 -1.770886 0.000000 0.000000 0.000000 -1.185415 4.315936 -6.035725 1.890224 -0.518074 11.366352 -3.373471 -5.968553 1.968398 1.865697 0.473379 -8.376440 -1.923062 0.442800 0.297234 0.000000 0.000000 0.000000 -2.096771 1.752827 -5.767431 1.609454 -1.492178 3.557784 2.138777 -0.026873 5.453998 0.882728 1.498291 -0.389910 0.000000 0.000000 0.000000 0.376218 0.270083 5.255542 -1.985858 0.739307 -0.994518 -4.047855 1.276553 -5.675246 0.000000 0.000000 0.000000 0.500397 0.362207 5.241163 4.259700 -10.970167 -4.793657 -1.091034 -0.341808 -0.062243 2.307459 2.017912 -81.457560 -1.957550 -13.210638 0.067081 0.000000 0.000000 0.000000 0.890659 0.483695 5.269506 4.308368 3.193472 9.774516 -1.587370 2.876776 -2.152310 2.465691 9.330325 66.076008 1.505179 17.916071 1.641379 0.000000 0.000000 0.000000 
